<?xml version="1.0" standalone="no"?>
<!DOCTYPE svg PUBLIC "-//W3C//DTD SVG 20010904//EN"
 "http://www.w3.org/TR/2001/REC-SVG-20010904/DTD/svg10.dtd">
<svg version="1.0" xmlns="http://www.w3.org/2000/svg"
 width="700.000000pt" height="700.000000pt" viewBox="0 0 700.000000 700.000000"
 preserveAspectRatio="xMidYMid meet">
<metadata>
Created by potrace 1.11, written by Peter Selinger 2001-2013
</metadata>
<g transform="translate(0.000000,700.000000) scale(0.100000,-0.100000)"
fill="#000000" stroke="none">
<path d="M0 3500 l0 -3500 3500 0 3500 0 0 3500 0 3500 -3500 0 -3500 0 0
-3500z m5425 2279 c30 -15 62 -42 80 -68 l30 -43 3 -1579 c2 -1730 6 -1605
-54 -1669 -34 -36 -46 -132 -46 -360 0 -239 12 -321 52 -367 43 -49 52 -92 48
-235 -3 -122 -4 -128 -33 -169 -18 -26 -50 -53 -80 -68 l-49 -26 -1501 -3
c-930 -2 -1542 1 -1611 7 -210 19 -386 97 -531 234 -132 126 -213 263 -253
429 -19 81 -20 119 -20 1638 0 1519 1 1557 20 1638 39 165 118 299 246 423
142 136 310 216 503 239 36 4 759 7 1606 6 l1541 -1 49 -26z"/>
<path d="M2636 4628 c-12 -17 -16 -48 -16 -118 0 -70 4 -101 16 -118 l15 -22
999 0 c978 0 1000 0 1010 19 5 11 10 67 10 124 0 88 -3 106 -18 120 -17 16
-101 17 -1010 17 l-991 0 -15 -22z"/>
<path d="M2645 4055 c-23 -22 -25 -31 -25 -122 0 -73 4 -104 16 -121 l15 -22
994 0 994 0 15 22 c12 17 16 48 16 125 0 90 -3 106 -20 123 -20 20 -33 20
-1000 20 l-981 0 -24 -25z"/>
<path d="M2260 2336 c-128 -34 -220 -150 -220 -276 0 -76 28 -140 89 -201 97
-96 -27 -89 1485 -89 l1321 0 -8 146 c-5 80 -5 209 0 286 4 77 6 141 4 144 -2
2 -594 4 -1315 3 -1003 0 -1322 -3 -1356 -13z"/>
</g>
</svg>
